# Blender v2.79 (sub 0) OBJ File: 'walls cubby roof.blend'
# www.blender.org
mtllib wallsCubbyRoof.mtl
o Plane_Plane.001
v 7.427841 5.273641 6.742857
v 7.427840 5.273641 -8.257144
v -0.572160 5.273641 6.742857
v -0.572160 5.273641 -8.257144
v 7.291544 12.308917 6.742857
v -0.435863 10.238364 6.742857
v 7.291543 12.308917 -8.257144
v -0.435863 10.238364 -8.257144
v 7.291543 12.308917 -5.257143
v -0.435863 10.238364 -5.257143
v 7.291544 12.308917 3.742856
v -0.435863 10.238364 3.742856
v 7.339061 9.321650 3.742856
v -0.483380 7.225632 3.742856
v 7.344180 9.308917 -5.257143
v -0.435863 7.238364 -5.257143
v 7.344180 9.308917 3.742857
v -0.435863 7.238364 3.742857
v 7.435640 5.269131 6.742857
v 7.435639 5.269131 3.742856
v 7.404760 5.266086 -8.257144
v 7.404760 5.266086 -5.257143
v 6.344180 9.308917 -5.257143
v 6.344180 9.308917 3.742857
v 6.344180 5.255266 -5.257143
v 6.344180 5.255266 3.742857
v 7.408298 9.308917 3.742857
v 7.408298 5.255266 3.742857
v 7.404837 9.308917 -5.257143
v 7.404837 5.255266 -5.257143
v 7.344180 5.255266 -5.257143
v 7.344180 5.255266 3.742857
v -0.435863 10.238364 6.742857
v 7.291544 12.308917 6.742857
v -0.435863 10.238364 3.742856
v 7.291544 12.308917 3.742856
v -0.572160 5.273641 6.741519
v -0.435863 10.238364 6.741519
v 6.344180 9.308917 -8.145986
v 6.344180 5.255266 -8.145986
v 7.404837 9.308917 -8.145986
v 7.404837 5.255266 -8.145986
v 6.344180 5.255266 6.735570
v 6.344180 9.308917 6.735570
v 7.408298 5.255266 6.735570
v 7.408298 9.308917 6.735570
v 7.409829 9.308917 -5.257143
v 7.409829 5.255266 -5.257143
v 7.405097 9.308917 3.742857
v 7.405097 5.255266 3.742857
v 6.344180 5.255266 -8.165117
v 7.409829 5.255266 -8.165117
v 6.344180 5.255266 6.690376
v 7.344180 5.255266 6.690376
v -0.572160 5.273641 3.747590
v -0.517823 7.252906 3.734750
v -0.572160 5.273641 -5.203455
v -0.558348 5.776754 -5.208898
v -0.435863 10.238364 -5.257123
v -0.435863 10.238364 3.740712
v 7.427841 5.273641 6.817856
v 7.427840 5.273641 -8.332144
v -0.572160 5.273641 6.817856
v -0.600504 5.273689 -8.310059
v 7.327589 12.308964 6.775368
v -0.435863 10.238364 6.817856
v 7.303761 12.316713 -8.298135
v -0.464612 10.241224 -8.304672
v 7.303762 12.316715 -5.216167
v -0.451922 10.242110 -5.194462
v 7.327598 12.308964 3.710377
v -0.435863 10.238364 3.667856
v 7.339061 9.321650 3.667856
v -0.483380 7.225632 3.667859
v 7.327155 9.307076 -5.190697
v -0.462145 7.244536 -5.224684
v 7.307468 9.304947 3.742857
v -0.465017 7.245211 3.742857
v 7.475639 5.269182 6.742857
v 7.475638 5.269182 3.742856
v 7.444759 5.266126 -8.257144
v 7.444759 5.266126 -5.257143
v 6.370846 9.302250 -5.282142
v 6.370846 9.302250 3.767856
v 6.365560 5.263284 -5.277187
v 6.365560 5.263284 3.762901
v 7.380015 9.301846 3.742857
v 7.380015 5.262337 3.742857
v 7.376554 9.301846 -5.257143
v 7.376554 5.262337 -5.257143
v 7.344180 5.265266 -5.257143
v 7.344180 5.265266 3.742857
v -0.465109 10.245186 6.742857
v 7.262297 12.315739 6.742857
v -0.465109 10.245186 3.742856
v 7.262298 12.315739 3.742856
v -0.612159 5.273709 6.741519
v -0.475862 10.238432 6.741519
v 6.367274 9.303144 -8.102685
v 6.367274 5.261039 -8.102685
v 7.381743 9.303144 -8.102685
v 7.381743 5.261039 -8.102685
v 6.367273 5.261039 6.692269
v 6.367273 9.303144 6.692269
v 7.385204 5.261039 6.692269
v 7.385204 9.303144 6.692269
v 7.409829 9.308917 -5.332143
v 7.409829 5.262337 -5.310174
v 7.405097 9.308917 3.817857
v 7.405097 5.255266 3.817857
v 6.344180 5.265265 -8.165117
v 7.409829 5.265266 -8.165117
v 6.344180 5.265266 6.690376
v 7.344180 5.265266 6.690376
v -0.612159 5.273709 3.747590
v -0.557822 7.252975 3.734750
v -0.612159 5.273709 -5.203455
v -0.598347 5.776823 -5.208898
v -0.475862 10.238432 -5.257123
v -0.475862 10.238432 3.740712
vt 0.746418 0.000194
vt 0.746419 0.183284
vt 0.720557 0.183284
vt 0.720557 0.000194
vt 0.000000 0.000000
vt 0.000000 0.000000
vt 0.000000 0.000000
vt 0.000000 0.000000
vt 0.000000 0.000000
vt 0.000000 0.000000
vt 0.000000 0.000000
vt 0.000000 0.000000
vt 0.720557 0.366763
vt 0.720557 0.183672
vt 0.746418 0.183672
vt 0.746418 0.366763
vt 0.590862 0.000820
vt 0.564966 0.033655
vt 0.564539 0.001128
vt 0.000000 0.000000
vt 0.000000 0.000000
vt 0.000000 0.000000
vt 0.000000 0.000000
vt 0.568759 0.322100
vt 0.594619 0.321797
vt 0.491198 0.323008
vt 0.465331 0.323311
vt 0.461573 0.002334
vt 0.487381 0.002032
vt 0.746418 0.000194
vt 0.720557 0.000194
vt 0.720557 0.183284
vt 0.746419 0.183284
vt 0.000000 0.000000
vt 0.000000 0.000000
vt 0.000000 0.000000
vt 0.000000 0.000000
vt 0.000000 0.000000
vt 0.000000 0.000000
vt 0.000000 0.000000
vt 0.000000 0.000000
vt 0.720557 0.366763
vt 0.746418 0.366763
vt 0.746418 0.183672
vt 0.720557 0.183672
vt 0.590862 0.000820
vt 0.564539 0.001128
vt 0.564966 0.033655
vt 0.000000 0.000000
vt 0.000000 0.000000
vt 0.000000 0.000000
vt 0.000000 0.000000
vt 0.568759 0.322100
vt 0.594619 0.321797
vt 0.491198 0.323008
vt 0.487381 0.002032
vt 0.461573 0.002334
vt 0.465331 0.323311
vt 0.461185 0.904824
vt 0.399638 0.999806
vt 0.164908 0.845406
vt 0.126025 0.689942
vt 0.720169 0.000194
vt 0.720169 0.455061
vt 0.161428 0.845116
vt 0.124519 0.691068
vt 0.086834 0.694865
vt 0.125717 0.850329
vt 0.043720 0.999806
vt 0.004359 0.842431
vt 0.587306 0.649413
vt 0.462357 0.783240
vt 0.461573 0.589276
vt 0.587373 0.455449
vt 0.743319 0.455449
vt 0.743319 0.639121
vt 0.665733 0.639121
vt 0.665733 0.455449
vt 0.587760 0.717924
vt 0.665346 0.717924
vt 0.665346 0.734087
vt 0.587760 0.734087
vt 0.665733 0.639508
vt 0.743319 0.639508
vt 0.743319 0.655672
vt 0.665733 0.655672
vt 0.127223 0.849203
vt 0.090314 0.695155
vt 0.781538 0.000194
vt 0.781538 0.262279
vt 0.764394 0.262279
vt 0.764394 0.000194
vt 0.000000 0.000000
vt 0.000000 0.000000
vt 0.000000 0.000000
vt 0.000000 0.000000
vt 0.746807 0.262281
vt 0.746806 0.000194
vt 0.764006 0.000194
vt 0.764006 0.262281
vt 0.665733 0.655672
vt 0.665733 0.639508
vt 0.488989 0.129993
vt 0.461185 0.904824
vt 0.126025 0.689942
vt 0.164908 0.845406
vt 0.399638 0.999806
vt 0.720169 0.455061
vt 0.720169 0.000194
vt 0.124519 0.691068
vt 0.161428 0.845116
vt 0.086834 0.694865
vt 0.004359 0.842431
vt 0.043720 0.999806
vt 0.125717 0.850329
vt 0.587306 0.649413
vt 0.587373 0.455449
vt 0.461573 0.589276
vt 0.462357 0.783240
vt 0.743319 0.455449
vt 0.665733 0.455449
vt 0.665733 0.639121
vt 0.743319 0.639121
vt 0.587760 0.717924
vt 0.587760 0.734087
vt 0.665346 0.734087
vt 0.665346 0.717924
vt 0.665733 0.639508
vt 0.665733 0.655672
vt 0.743319 0.655672
vt 0.743319 0.639508
vt 0.127223 0.849203
vt 0.090314 0.695155
vt 0.781538 0.000194
vt 0.764394 0.000194
vt 0.764394 0.262279
vt 0.781538 0.262279
vt 0.000000 0.000000
vt 0.000000 0.000000
vt 0.000000 0.000000
vt 0.000000 0.000000
vt 0.746807 0.262281
vt 0.764006 0.262281
vt 0.764006 0.000194
vt 0.746806 0.000194
vt 0.665733 0.639508
vt 0.665733 0.655672
vt 0.488989 0.129993
vt -0.720292 0.986768
vt -0.887615 0.997923
vt -1.257520 -0.565109
vt -1.090204 -0.576264
vt 2.027285 1.487262
vt 1.916870 1.487262
vt 1.916856 0.455386
vt 2.027270 0.455386
vt 1.582300 1.049298
vt 1.251055 1.049298
vt 1.251055 0.455386
vt 1.582300 0.455386
vt 1.251055 1.049298
vt 1.251055 0.455386
vt 1.582300 0.455386
vt 1.582300 1.049298
vt 1.251055 0.455386
vt 1.251055 1.049298
vt 1.582300 1.049298
vt 1.582300 0.455386
vt 1.251055 0.455386
vt 1.251055 0.455386
vt -0.720292 0.986768
vt -1.090204 -0.576264
vt -1.257520 -0.565109
vt -0.887615 0.997923
vt 2.027285 1.487262
vt 2.027270 0.455386
vt 1.916856 0.455386
vt 1.916870 1.487262
vt 1.582300 1.049298
vt 1.582300 0.455386
vt 1.251055 0.455386
vt 1.251055 1.049298
vt 1.251055 0.455386
vt 1.251055 1.049298
vt 1.582300 1.049298
vt 1.582300 0.455386
vt 1.251055 1.049298
vt 1.251055 0.455386
vt 1.582300 0.455386
vt 1.582300 1.049298
vt 1.251055 0.455386
vt 1.251055 0.455386
vn 0.2588 -0.9659 0.0000
vn 0.0000 1.0000 0.0000
vn 0.9996 -0.0274 -0.0000
vn 0.0000 -1.0000 0.0000
vn -0.2583 0.9661 0.0004
vn -0.0002 -1.0000 0.0004
vn -0.0002 -1.0000 -0.0004
vn -0.2588 0.9659 -0.0000
vn -0.9996 0.0274 -0.0038
vn 0.0005 1.0000 0.0006
vn -0.9996 0.0274 -0.0037
vn -0.9996 0.0274 0.0000
vn -0.1457 -0.9893 0.0004
vn -0.0060 -0.8762 -0.4819
vn -0.0054 0.7980 -0.6026
vn -0.0060 -0.8762 0.4819
vn 0.0000 0.0000 1.0000
vn -0.0017 -1.0000 0.0000
vn 0.0017 1.0000 -0.0000
vn 0.0422 0.9991 0.0005
vn 0.0000 0.0000 -1.0000
vn 0.2572 -0.9664 0.0000
vn 1.0000 0.0000 0.0000
vn 0.0022 0.0035 1.0000
vn -0.0014 0.0033 -1.0000
vn -0.2430 0.9125 0.3291
vn 0.0008 0.0071 -1.0000
vn -0.0006 -0.0008 1.0000
vn -0.2561 0.9667 -0.0002
vn 0.0040 -1.0000 -0.0001
vn -0.0020 1.0000 0.0000
vn -0.2271 -0.9739 0.0000
vn -0.2430 0.9125 -0.3292
vn 0.1032 0.9947 0.0000
vn -1.0000 0.0000 -0.0018
vn 0.0005 1.0000 -0.0006
vn -1.0000 0.0000 0.0018
vn -0.0010 1.0000 -0.0003
vn -0.0000 -1.0000 -0.0004
vn 0.9480 0.0150 -0.3178
vn 0.9942 0.0181 0.1059
vn 0.9481 0.0071 0.3180
vn -0.9999 0.0158 0.0000
vn -0.9135 0.0036 -0.4069
vn 0.9990 0.0128 0.0440
vn -0.2286 -0.9735 -0.0000
vn 0.0038 0.9196 0.3929
vn 0.0119 -0.9789 -0.2038
vn -0.0055 0.7980 0.6026
vn 0.0075 -0.7476 -0.6641
vn -0.6430 0.7659 -0.0026
vn -0.9998 -0.0205 0.0000
vn -0.9999 -0.0161 0.0000
vn -1.0000 0.0000 0.0000
vn 0.9998 0.0210 0.0000
vn 0.9998 0.0200 -0.0000
vn 1.0000 -0.0013 0.0000
vn 1.0000 -0.0007 -0.0003
vn 1.0000 -0.0007 0.0003
vn -0.0398 -0.0033 -0.9992
vn -0.0505 -0.0006 0.9987
vn 0.0005 1.0000 0.0009
vn 0.0013 -1.0000 0.0000
vn -0.3931 -0.0103 0.9194
vn -0.3927 -0.0103 -0.9196
vn 0.0010 -1.0000 -0.0000
vn -0.6160 -0.0134 0.7876
vn -0.6162 -0.0134 -0.7875
vn -0.0048 0.9977 -0.0678
vn -0.0060 -0.9963 0.0854
vn -0.0048 0.9977 0.0678
vn -0.6430 0.7659 0.0026
usemtl Material.001
s off
f 8/1/1 7/2/1 9/3/1 10/4/1
f 27/5/2 24/6/2 44/7/2 46/8/2
f 23/9/2 29/10/2 41/11/2 39/12/2
f 34/13/1 33/14/1 35/15/1 36/16/1
f 4/17/3 58/18/3 57/19/3
f 26/20/4 28/21/4 45/22/4 43/23/4
f 59/24/3 58/18/3 4/17/3 8/25/3
f 60/26/3 38/27/3 37/28/3 55/29/3
f 68/30/5 70/31/5 69/32/5 67/33/5
f 87/34/6 106/35/6 104/36/6 84/37/6
f 83/38/7 99/39/7 101/40/7 89/41/7
f 94/42/8 96/43/8 95/44/8 93/45/8
f 64/46/9 117/47/9 118/48/9
f 86/49/10 103/50/10 105/51/10 88/52/10
f 119/53/11 68/54/11 64/46/11 118/48/11
f 120/55/12 115/56/12 97/57/12 98/58/12
f 8/1/13 10/4/13 70/31/13 68/30/13
f 24/6/14 27/5/14 87/34/14 84/37/14
f 28/21/15 26/20/15 86/49/15 88/52/15
f 29/10/16 23/9/16 83/38/16 89/41/16
f 37/28/17 38/27/17 98/58/17 97/57/17
f 4/17/18 57/19/18 117/47/18 64/46/18
f 38/27/19 60/26/19 120/55/19 98/58/19
f 55/29/18 37/28/18 97/57/18 115/56/18
f 59/24/20 8/25/20 68/54/20 119/53/20
usemtl Material.002
f 1/59/21 3/60/21 6/61/21 5/62/21
f 4/17/17 2/63/17 7/64/17 8/25/17
f 5/62/17 6/61/17 33/65/17 34/66/17
f 11/67/17 12/68/17 14/69/17 13/70/17
f 10/71/21 9/72/21 15/73/21 16/74/21
f 16/75/22 15/76/22 17/77/22 18/78/22
f 17/79/2 15/80/2 23/81/2 24/82/2
f 26/83/4 25/84/4 31/85/4 32/86/4
f 6/61/17 12/68/17 35/87/17 33/65/17
f 12/68/17 11/67/17 36/88/17 35/87/17
f 11/67/17 5/62/17 34/66/17 36/88/17
f 40/89/21 39/90/21 41/91/21 42/92/21
f 29/10/23 30/93/23 42/94/23 41/11/23
f 30/93/4 25/95/4 40/96/4 42/94/4
f 44/97/17 43/98/17 45/99/17 46/100/17
f 28/21/23 27/5/23 46/8/23 45/22/23
f 26/83/4 32/86/4 54/101/4 53/102/4
f 55/29/3 56/103/3 58/18/3 59/24/3 60/26/3
f 57/19/3 58/18/3 56/103/3 55/29/3
f 61/104/24 65/105/24 66/106/24 63/107/24
f 64/46/25 68/54/25 67/108/25 62/109/25
f 65/105/26 94/110/26 93/111/26 66/106/26
f 71/112/27 73/113/27 74/114/27 72/115/27
f 70/116/28 76/117/28 75/118/28 69/119/28
f 76/120/29 78/121/29 77/122/29 75/123/29
f 77/124/30 84/125/30 83/126/30 75/127/30
f 86/128/31 92/129/31 91/130/31 85/131/31
f 66/106/32 93/111/32 95/132/32 72/115/32
f 72/115/33 95/132/33 96/133/33 71/112/33
f 71/112/34 96/133/34 94/110/34 65/105/34
f 100/134/17 102/135/17 101/136/17 99/137/17
f 89/41/35 101/40/35 102/138/35 90/139/35
f 90/139/36 102/138/36 100/140/36 85/141/36
f 104/142/21 106/143/21 105/144/21 103/145/21
f 88/52/37 105/51/37 106/35/37 87/34/37
f 86/128/38 113/146/38 114/147/38 92/129/38
f 115/56/12 120/55/12 119/53/12 118/48/12 116/148/12
f 117/47/12 115/56/12 116/148/12 118/48/12
f 3/60/4 1/59/4 61/104/4 63/107/4
f 2/63/39 4/17/39 64/46/39 62/109/39
f 1/59/40 5/62/40 65/105/40 61/104/40
f 6/61/12 3/60/12 63/107/12 66/106/12
f 7/64/41 2/63/41 62/109/41 67/108/41
f 12/68/17 6/61/17 66/106/17 72/115/17
f 13/70/1 14/69/1 74/114/1 73/113/1
f 11/67/42 13/70/42 73/113/42 71/112/42
f 14/69/43 12/68/43 72/115/43 74/114/43
f 10/71/44 16/74/44 76/117/44 70/116/44
f 15/73/45 9/72/45 69/119/45 75/118/45
f 18/78/17 17/77/17 77/122/17 78/121/17
f 16/75/46 18/78/46 78/121/46 76/120/46
f 17/79/47 24/82/47 84/125/47 77/124/47
f 23/81/48 15/80/48 75/127/48 83/126/48
f 27/5/21 28/21/21 88/52/21 87/34/21
f 30/93/17 29/10/17 89/41/17 90/139/17
f 25/95/49 30/93/49 90/139/49 85/141/49
f 32/86/23 31/85/23 91/130/23 92/129/23
f 31/85/50 25/84/50 85/131/50 91/130/50
f 53/102/17 54/101/17 114/147/17 113/146/17
f 26/83/51 53/102/51 113/146/51 86/128/51
f 54/101/23 32/86/23 92/129/23 114/147/23
f 57/19/18 55/29/18 115/56/18 117/47/18
f 60/26/19 59/24/19 119/53/19 120/55/19
usemtl brick
f 5/149/52 11/150/52 20/151/52 19/152/52
f 9/153/53 7/154/53 21/155/53 22/156/53
f 24/157/54 23/158/54 25/159/54 26/160/54
f 25/159/54 23/158/54 39/161/54 40/162/54
f 24/157/54 26/160/54 43/163/54 44/164/54
f 23/158/17 25/159/17 48/165/17 47/166/17
f 26/160/21 24/157/21 49/167/21 50/168/21
f 48/165/4 25/159/4 51/169/4 52/170/4
f 65/171/55 79/172/55 80/173/55 71/174/55
f 69/175/56 82/176/56 81/177/56 67/178/56
f 84/179/57 86/180/57 85/181/57 83/182/57
f 85/181/58 100/183/58 99/184/58 83/182/58
f 84/179/59 104/185/59 103/186/59 86/180/59
f 83/182/60 107/187/60 108/188/60 85/181/60
f 86/180/61 110/189/61 109/190/61 84/179/61
f 108/188/62 112/191/62 111/192/62 85/181/62
f 19/152/63 20/151/63 80/173/63 79/172/63
f 5/149/64 19/152/64 79/172/64 65/171/64
f 20/151/65 11/150/65 71/174/65 80/173/65
f 22/156/66 21/155/66 81/177/66 82/176/66
f 9/153/67 22/156/67 82/176/67 69/175/67
f 21/155/68 7/154/68 67/178/68 81/177/68
f 47/166/23 48/165/23 108/188/23 107/187/23
f 23/158/69 47/166/69 107/187/69 83/182/69
f 50/168/23 49/167/23 109/190/23 110/189/23
f 26/160/70 50/168/70 110/189/70 86/180/70
f 49/167/71 24/157/71 84/179/71 109/190/71
f 52/170/21 51/169/21 111/192/21 112/191/21
f 48/165/23 52/170/23 112/191/23 108/188/23
f 51/169/72 25/159/72 85/181/72 111/192/72
