# Blender v2.79 (sub 0) OBJ File: 'book.blend'
# www.blender.org
mtllib book1.mtl
o Cube
v 0.565679 -0.754536 -1.000000
v 0.565679 -0.754536 1.000000
v -1.000000 -0.754536 1.000000
v -1.000000 -0.754536 -1.000000
v 0.562345 -0.753441 -0.921561
v 0.562344 -0.754373 0.921562
v -0.938596 -0.726987 0.921561
v -0.938595 -0.726987 -0.921562
v 0.563175 -0.445324 -0.921561
v 0.563174 -0.445324 0.921562
v -0.938595 -0.467296 -0.921562
v -0.938596 -0.467296 0.921561
v -0.995308 -0.444716 1.000000
v -0.937839 -0.469283 0.926617
v -0.995308 -0.444716 -1.000000
v -0.937839 -0.469283 -0.926617
v 0.561873 -0.444716 1.000000
v 0.559433 -0.469283 0.926617
v 0.561873 -0.444716 -1.000000
v 0.559433 -0.469283 -0.926617
v 0.496581 -0.754536 -1.000000
v 0.496581 -0.754536 1.000000
v 0.496105 -0.753441 -0.921561
v 0.496103 -0.754373 0.921562
v 0.496898 -0.445324 -0.921561
v 0.496897 -0.445324 0.921562
v 0.497576 -0.444716 -1.000000
v 0.497943 -0.469283 -0.926617
v 0.497576 -0.444716 1.000000
v 0.497943 -0.469283 0.926617
v 0.563175 -0.445324 -1.001087
v 0.562345 -0.753441 -1.001087
v 0.496105 -0.753441 -1.001087
v 0.496898 -0.445324 -1.001087
v 0.562344 -0.754373 0.995937
v 0.563174 -0.445324 0.995937
v 0.496103 -0.754373 0.995937
v 0.496897 -0.445324 0.995937
vt 0.015376 0.499998
vt 0.015376 0.000000
vt 0.348412 0.000000
vt 0.348412 0.499998
vt 0.765579 0.460779
vt 0.765579 0.000000
vt 0.823349 0.000000
vt 0.823349 0.460779
vt 0.348412 0.000004
vt 0.349157 0.019614
vt 0.349155 0.480393
vt 0.348412 0.500002
vt 0.363788 0.500002
vt 0.363895 0.480393
vt 0.683206 0.480396
vt 0.696806 0.499998
vt 0.683206 0.019617
vt 0.696806 0.000000
vt 0.363897 0.019614
vt 0.363788 0.000004
vt 1.000000 0.960781
vt 0.680626 0.960790
vt 0.680626 0.500012
vt 1.000000 0.500002
vt 0.892122 0.358857
vt 0.897187 0.000167
vt 0.954976 0.000000
vt 0.960688 0.358857
vt 0.960688 0.480660
vt 0.975436 0.480660
vt 0.975436 0.499254
vt 0.960688 0.499254
vt 0.696806 0.460779
vt 0.697013 0.000000
vt 0.765579 0.000000
vt 0.765579 0.460779
vt 0.000000 0.500002
vt 0.012845 0.518354
vt 0.012845 0.981660
vt 0.000000 1.000000
vt 0.332195 0.999996
vt 0.332334 0.981657
vt 0.346016 0.981656
vt 0.346503 0.999996
vt 0.995224 0.499998
vt 0.989745 0.481652
vt 0.989745 0.018346
vt 0.995224 0.000000
vt 0.332195 0.499998
vt 0.332334 0.518350
vt 0.975436 0.000000
vt 0.989744 0.000000
vt 0.989745 0.499998
vt 0.975436 0.499998
vt 0.886848 0.000167
vt 0.892123 0.358857
vt 0.823349 0.358857
vt 0.829059 0.000000
vt 0.823349 0.435886
vt 0.823349 0.358857
vt 0.841046 0.358857
vt 0.841046 0.435886
vt 0.960688 0.019881
vt 0.975436 0.019881
vt 0.000000 0.499998
vt 0.000000 0.000000
vt 0.346016 0.518350
vt 0.348412 0.500002
vt 0.680626 0.500002
vt 0.680626 1.000000
vt 0.348413 1.000000
vt 0.346503 0.499998
vt 0.890050 0.359132
vt 0.904791 0.359089
vt 0.904791 0.436119
vt 0.890042 0.436161
vt 0.960688 0.000000
vt 0.975436 0.000000
vt 0.711547 0.499254
vt 0.696806 0.499254
vt 0.696806 0.479373
vt 0.711547 0.479373
vt 0.841046 0.435865
vt 0.841046 0.358857
vt 0.858743 0.358857
vt 0.858743 0.435865
vt 0.890042 0.436161
vt 0.875302 0.436119
vt 0.875293 0.358857
vt 0.890042 0.358899
vt 0.711547 0.479373
vt 0.726287 0.479373
vt 0.726287 0.497966
vt 0.711547 0.497966
vt 0.875293 0.358857
vt 0.875293 0.436098
vt 0.858743 0.436098
vt 0.858743 0.358857
vt 0.765579 0.479373
vt 0.696806 0.479373
vn 0.0448 -0.0859 -0.9953
vn 0.0509 -0.0881 0.9948
vn -0.8617 -0.0123 0.5072
vn -0.8550 -0.0151 -0.5184
vn -0.4676 0.8047 -0.3657
vn -0.4678 0.8055 0.3638
vn -0.5813 0.5725 0.5781
vn -0.5813 0.5725 -0.5781
vn 0.3617 0.0571 -0.9305
vn 0.7702 0.6377 -0.0045
vn 0.7699 0.6381 0.0008
vn 0.9241 -0.0807 0.3734
vn -0.5435 0.5412 0.6416
vn -0.5404 0.5374 -0.6474
vn -0.3058 0.9043 -0.2977
vn -0.3058 0.9043 0.2978
vn 0.7080 0.7061 0.0000
vn -0.5765 0.5780 0.5775
vn 0.5782 0.5766 0.5772
vn 0.6808 -0.0940 -0.7264
vn 0.1589 0.9804 -0.1164
vn 0.1589 0.9804 0.1164
vn 0.6808 -0.0940 0.7264
vn 0.0000 -0.1608 0.9870
vn 0.0000 0.9870 0.1608
vn -0.6354 0.7635 0.1153
vn -0.5464 -0.1338 0.8267
vn -0.6354 0.7635 -0.1153
vn -0.5464 -0.1338 -0.8267
vn 0.0000 -0.1608 -0.9870
vn 0.0000 0.9870 -0.1608
vn 0.5765 -0.5781 -0.5775
vn 0.5782 0.5766 -0.5772
vn -0.5781 -0.5766 -0.5772
vn -0.5765 0.5780 -0.5775
vn -0.5781 -0.5766 0.5772
vn 0.5765 -0.5781 0.5775
usemtl Material.002
s 1
f 21/1/1 22/2/2 3/3/3 4/4/4
f 8/5/5 7/6/6 12/7/7 11/8/8
f 1/9/9 5/10/10 6/11/11 2/12/12
f 22/13/2 24/14/13 7/15/6 3/16/3
f 3/16/3 7/15/6 8/17/5 4/18/4
f 23/19/14 21/20/1 4/18/4 8/17/5
f 25/21/15 11/22/8 12/23/7 26/24/16
f 23/25/14 8/26/5 11/27/8 25/28/15
f 10/29/17 26/30/16 38/31/18 36/32/19
f 6/33/11 5/34/10 9/35/17 10/36/17
f 13/37/20 14/38/21 16/39/22 15/40/23
f 27/41/24 28/42/25 20/43/26 19/44/27
f 19/45/27 20/46/26 18/47/28 17/48/29
f 29/49/30 30/50/31 14/38/21 13/37/20
f 27/51/24 19/52/27 17/53/29 29/54/30
f 28/42/25 16/39/22 14/38/21 30/50/31
f 7/55/6 24/56/13 26/57/16 12/58/7
f 9/59/17 5/60/10 32/61/32 31/62/33
f 9/63/17 25/64/15 26/30/16 10/29/17
f 5/10/10 1/9/9 21/20/1 23/19/14
f 2/12/12 6/11/11 24/14/13 22/13/2
f 1/65/9 2/66/12 22/2/2 21/1/1
f 20/43/26 28/42/25 30/50/31 18/67/28
f 15/68/23 27/69/24 29/70/30 13/71/20
f 17/72/29 18/67/28 30/50/31 29/49/30
f 15/40/23 16/39/22 28/42/25 27/41/24
f 32/73/32 33/74/34 34/75/35 31/76/33
f 25/64/15 9/63/17 31/77/33 34/78/35
f 5/79/10 23/80/14 33/81/34 32/82/32
f 23/83/14 25/84/15 34/85/35 33/86/34
f 37/87/36 35/88/37 36/89/19 38/90/18
f 24/91/13 6/92/11 35/93/37 37/94/36
f 26/95/16 24/96/13 37/97/36 38/98/18
f 6/33/11 10/36/17 36/99/19 35/100/37
