# Blender v2.79 (sub 0) OBJ File: 'book.blend'
# www.blender.org
mtllib book1.mtl
o Cube
v 0.565679 -0.754536 -1.000000
v 0.565679 -0.754536 1.000000
v -1.000000 -0.754536 1.000000
v -1.000000 -0.754536 -1.000000
v 0.562345 -0.753441 -0.921561
v 0.562344 -0.754373 0.921562
v -0.938596 -0.726987 0.921561
v -0.938595 -0.726987 -0.921562
v 0.563175 -0.445324 -0.921561
v 0.563174 -0.445324 0.921562
v -0.938595 -0.467296 -0.921562
v -0.938596 -0.467296 0.921561
v -0.995308 -0.444716 1.000000
v -0.937839 -0.469283 0.926617
v -0.995308 -0.444716 -1.000000
v -0.937839 -0.469283 -0.926617
v 0.561873 -0.444716 1.000000
v 0.559433 -0.469283 0.926617
v 0.561873 -0.444716 -1.000000
v 0.559433 -0.469283 -0.926617
v 0.496581 -0.754536 -1.000000
v 0.496581 -0.754536 1.000000
v 0.496105 -0.753441 -0.921561
v 0.496103 -0.754373 0.921562
v 0.496898 -0.445324 -0.921561
v 0.496897 -0.445324 0.921562
v 0.497576 -0.444716 -1.000000
v 0.497943 -0.469283 -0.926617
v 0.497576 -0.444716 1.000000
v 0.497943 -0.469283 0.926617
v 0.563175 -0.445324 -1.001087
v 0.562345 -0.753441 -1.001087
v 0.496105 -0.753441 -1.001087
v 0.496898 -0.445324 -1.001087
v 0.562344 -0.754373 0.995937
v 0.563174 -0.445324 0.995937
v 0.496103 -0.754373 0.995937
v 0.496897 -0.445324 0.995937
vt 0.282049 0.885043
vt 0.000150 0.885043
vt 0.000150 0.737645
vt 0.282049 0.737645
vt 0.334471 0.146884
vt 0.177645 0.252608
vt 0.174804 0.221511
vt 0.299105 0.142886
vt 0.277417 0.000150
vt 0.230658 0.022826
vt 0.024587 0.138656
vt 0.000150 0.146196
vt 0.000150 0.162677
vt 0.030398 0.155019
vt 0.234290 0.540817
vt 0.210912 0.565527
vt 0.961347 0.396092
vt 0.999850 0.408483
vt 0.260311 0.038512
vt 0.282800 0.028430
vt 0.346708 0.149365
vt 0.234987 0.059677
vt 0.060893 0.148481
vt 0.058893 0.142029
vt 0.053806 0.146945
vt 0.054009 0.144893
vt 0.213865 0.064539
vt 0.630554 0.570072
vt 0.620037 0.575451
vt 0.401053 0.570903
vt 0.392417 0.565827
vt 0.351537 0.715489
vt 0.363202 0.714989
vt 0.363960 0.721141
vt 0.352180 0.723383
vt 0.626723 0.733853
vt 0.638104 0.737345
vt 0.640380 0.729534
vt 0.628652 0.727929
vt 0.000792 0.737346
vt 0.000150 0.729452
vt 0.404140 0.574261
vt 0.616588 0.577635
vt 0.231351 0.041652
vt 0.222451 0.057304
vt 0.229435 0.063607
vt 0.282049 0.891848
vt 0.000150 0.891848
vt 0.564248 0.737645
vt 0.564248 0.884679
vt 0.282348 0.884679
vt 0.282348 0.737645
vt 0.237299 0.044795
vt 0.226646 0.054826
vt 0.227260 0.054744
vt 0.226277 0.054862
vt 0.042320 0.147962
vt 0.042728 0.144801
vn 0.0448 -0.0859 -0.9953
vn 0.0509 -0.0881 0.9948
vn -0.8617 -0.0123 0.5072
vn -0.8550 -0.0151 -0.5184
vn -0.4676 0.8047 -0.3657
vn -0.4678 0.8055 0.3638
vn -0.5813 0.5725 0.5781
vn -0.5813 0.5725 -0.5781
vn 0.3617 0.0571 -0.9305
vn 0.7702 0.6377 -0.0045
vn 0.7699 0.6381 0.0008
vn 0.9241 -0.0807 0.3734
vn -0.5435 0.5412 0.6416
vn -0.5404 0.5374 -0.6474
vn -0.3058 0.9043 -0.2977
vn -0.3058 0.9043 0.2978
vn 0.7080 0.7061 0.0000
vn -0.5765 0.5780 0.5775
vn 0.5782 0.5766 0.5772
vn 0.6808 -0.0940 -0.7264
vn 0.1589 0.9804 -0.1164
vn 0.1589 0.9804 0.1164
vn 0.6808 -0.0940 0.7264
vn 0.0000 -0.1608 0.9870
vn 0.0000 0.9870 0.1608
vn -0.6354 0.7635 0.1153
vn -0.5464 -0.1338 0.8267
vn -0.6354 0.7635 -0.1153
vn -0.5464 -0.1338 -0.8267
vn 0.0000 -0.1608 -0.9870
vn 0.0000 0.9870 -0.1608
vn 0.5765 -0.5781 -0.5775
vn 0.5782 0.5766 -0.5772
vn -0.5781 -0.5766 -0.5772
vn -0.5765 0.5780 -0.5775
vn -0.5781 -0.5766 0.5772
vn 0.5765 -0.5781 0.5775
usemtl Material.002
s 1
f 21/1/1 22/2/2 3/3/3 4/4/4
f 8/5/5 7/6/6 12/7/7 11/8/8
f 1/9/9 5/10/10 6/11/11 2/12/12
f 22/13/2 24/14/13 7/15/6 3/16/3
f 3/16/3 7/15/6 8/17/5 4/18/4
f 23/19/14 21/20/1 4/21/4 8/5/5
f 25/22/15 11/8/8 12/7/7 26/23/16
f 23/19/14 8/5/5 11/8/8 25/22/15
f 10/24/17 26/23/16 38/25/18 36/26/19
f 6/11/11 5/10/10 9/27/17 10/24/17
f 13/28/20 14/29/21 16/30/22 15/31/23
f 27/32/24 28/33/25 20/34/26 19/35/27
f 19/35/27 20/34/26 18/36/28 17/37/29
f 29/38/30 30/39/31 14/29/21 13/28/20
f 27/32/24 19/35/27 17/40/29 29/41/30
f 28/33/25 16/42/22 14/43/21 30/39/31
f 7/6/6 24/14/13 26/23/16 12/7/7
f 9/27/17 5/10/10 32/44/32 31/45/33
f 9/27/17 25/46/15 26/23/16 10/24/17
f 5/10/10 1/9/9 21/20/1 23/19/14
f 2/12/12 6/11/11 24/14/13 22/13/2
f 1/47/9 2/48/12 22/2/2 21/1/1
f 20/34/26 28/33/25 30/39/31 18/36/28
f 15/49/23 27/50/24 29/51/30 13/52/20
f 17/37/29 18/36/28 30/39/31 29/38/30
f 15/31/23 16/30/22 28/33/25 27/32/24
f 32/44/32 33/53/34 34/54/35 31/55/33
f 25/46/15 9/27/17 31/45/33 34/56/35
f 5/10/10 23/19/14 33/53/34 32/44/32
f 23/19/14 25/46/15 34/56/35 33/53/34
f 37/57/36 35/58/37 36/26/19 38/25/18
f 24/14/13 6/11/11 35/58/37 37/57/36
f 26/23/16 24/14/13 37/57/36 38/25/18
f 6/11/11 10/24/17 36/26/19 35/58/37
