# Blender v2.79 (sub 0) OBJ File: 'trashbinupdated.blend'
# www.blender.org
mtllib trashbinupdated.mtl
o Cube
v 1.834132 -0.117282 -1.531200
v 1.834132 -0.117282 1.531200
v -1.834132 -0.117282 1.531200
v -1.834131 -0.117282 -1.531201
v 2.167375 7.417575 -1.809402
v 2.167372 7.417575 1.809404
v -2.167375 7.417575 1.809402
v -2.167374 7.417575 -1.809402
v 1.822077 -0.094020 -1.521136
v 1.822077 -0.094020 1.521136
v -1.822078 -0.094020 1.521136
v -1.822077 -0.094020 -1.521137
v 2.152139 7.421646 -1.796682
v 2.152137 7.421646 1.796684
v -2.152139 7.421646 1.796682
v -2.152138 7.421646 -1.796683
vt 0.513649 0.000069
vt 0.728939 0.000069
vt 0.728939 0.215359
vt 0.513649 0.215359
vt 0.300873 0.182547
vt 0.242656 0.431743
vt 0.000069 0.355103
vt 0.095584 0.117691
vt 0.941714 0.182547
vt 0.999931 0.431743
vt 0.748497 0.470516
vt 0.494091 0.470516
vt 0.513649 0.000069
vt 0.513649 0.215359
vt 0.728939 0.215359
vt 0.728939 0.000069
vt 0.300873 0.182547
vt 0.095584 0.117691
vt 0.000069 0.355103
vt 0.242656 0.431743
vt 0.941714 0.182547
vt 0.748497 0.470516
vt 0.999931 0.431743
vt 0.494091 0.470516
vn 0.5651 -0.5986 -0.5678
vn 0.5651 -0.5986 0.5678
vn -0.5651 -0.5986 0.5678
vn -0.5651 -0.5986 -0.5678
vn 0.6164 0.4977 -0.6102
vn 0.6164 0.4977 0.6102
vn -0.6164 0.4977 0.6102
vn -0.6164 0.4977 -0.6102
vn -0.5651 0.5984 0.5679
vn 0.5651 0.5984 0.5679
vn 0.5651 0.5984 -0.5679
vn -0.5651 0.5984 -0.5679
vn -0.1997 0.9658 -0.1652
vn -0.1997 0.9658 0.1652
vn 0.1997 0.9658 -0.1652
vn 0.1997 0.9658 0.1652
usemtl recycling_bin
s 1
f 1/1/1 2/2/2 3/3/3 4/4/4
f 1/5/1 5/6/5 6/7/6 2/8/2
f 2/9/2 6/10/6 7/11/7 3/3/3
f 3/3/3 7/11/7 8/12/8 4/4/4
f 5/6/5 1/5/1 4/4/4 8/12/8
f 9/13/9 12/14/10 11/15/11 10/16/12
f 9/17/9 10/18/12 14/19/13 13/20/14
f 10/21/12 11/15/11 15/22/15 14/23/13
f 11/15/11 12/14/10 16/24/16 15/22/15
f 13/20/14 16/24/16 12/14/10 9/17/9
f 6/7/6 5/6/5 13/20/14 14/19/13
f 5/6/5 8/12/8 16/24/16 13/20/14
f 7/11/7 6/10/6 14/23/13 15/22/15
f 8/12/8 7/11/7 15/22/15 16/24/16
