# Blender v2.79 (sub 0) OBJ File: 'TV.blend'
# www.blender.org
mtllib TV.mtl
o Cube
v -0.965489 -1.000000 -0.865564
v -0.965489 -1.000000 1.000000
v -1.000000 -1.000000 1.000000
v -1.000000 -1.000000 -0.865564
v -0.965489 0.096799 -0.865563
v -0.965490 0.096799 1.000001
v -1.000000 0.096799 1.000000
v -1.000000 0.096799 -0.865564
v -0.965489 -1.000000 -0.805698
v -1.000000 -1.000000 -0.805699
v -0.965489 0.096799 -0.805698
v -1.000000 0.096799 -0.805698
v -0.965489 -1.000000 0.947846
v -0.965490 0.096799 0.947846
v -1.000000 -1.000000 0.947846
v -1.000000 0.096799 0.947846
v -0.965489 0.048207 -0.865563
v -0.965490 0.048207 1.000001
v -1.000000 0.048207 1.000000
v -1.000000 0.048207 -0.865564
v -1.048936 0.048207 -0.805698
v -0.965489 0.048207 -0.805698
v -1.048937 0.048207 0.947846
v -0.965490 0.048207 0.947846
v -1.048936 -0.947590 -0.805699
v -0.965489 -0.947590 -0.805698
v -1.048937 -0.947590 0.947846
v -0.965489 -0.947590 0.947846
v -0.965489 -0.947590 -0.865564
v -0.965489 -0.947590 1.000000
v -1.000000 -0.947590 1.000000
v -1.000000 -0.947590 -0.865564
v -0.989065 0.048207 -0.805698
v -0.989066 0.048207 0.947846
v -0.989066 -0.947590 -0.805698
v -0.989066 -0.947590 0.947846
vt 0.975655 0.018298
vt 0.965367 0.018298
vt 0.965367 0.000000
vt 0.975655 0.000000
vt 0.014486 0.018298
vt 0.000000 0.018298
vt 0.000000 0.000000
vt 0.014486 0.000000
vt 0.014486 0.654505
vt 0.000000 0.654505
vt 0.000000 0.633502
vt 0.014486 0.633502
vt 0.975655 0.654505
vt 0.965367 0.654505
vt 0.965367 0.633502
vt 0.975655 0.633502
vt 0.985943 0.021003
vt 0.985943 0.636208
vt 0.975655 0.636207
vt 0.975655 0.021003
vt 0.992972 0.000000
vt 0.992972 0.615204
vt 0.985943 0.615204
vt 0.985943 0.000000
vt 0.311344 0.654505
vt 0.311344 0.633502
vt 0.311344 0.018298
vt 0.311344 0.000000
vt 0.326968 0.018298
vt 0.326968 0.000000
vt 0.326968 0.654505
vt 0.326968 0.633502
vt 0.950778 0.615205
vt 0.653921 0.615204
vt 0.653921 0.000000
vt 0.950778 0.000000
vt 0.703142 0.615205
vt 0.703142 0.964565
vt 0.696114 0.964565
vt 0.696114 0.615205
vt 1.000000 0.000000
vt 1.000000 0.615204
vt 0.992972 0.615204
vt 0.992972 0.000000
vt 0.689086 0.964565
vt 0.689086 0.615205
vt 0.696114 0.615205
vt 0.696114 0.964565
vt 0.985943 0.654505
vt 0.975655 0.654505
vt 0.678797 0.982952
vt 0.678797 1.000000
vt 0.668509 1.000000
vt 0.668509 0.982952
vt 0.341593 0.025488
vt 0.326968 0.021260
vt 0.326968 0.000917
vt 0.341453 0.000876
vt 0.689085 0.981613
vt 0.689085 1.000000
vt 0.678798 1.000000
vt 0.678798 0.981613
vt 0.950779 0.018298
vt 0.950778 0.633502
vt 0.985943 0.000000
vt 0.975655 0.000000
vt 0.327108 0.634036
vt 0.341593 0.633996
vt 0.341593 0.651719
vt 0.326968 0.647491
vt 0.668509 0.633592
vt 0.653921 0.982952
vt 0.653921 0.633592
vt 0.638437 0.620541
vt 0.341593 0.621374
vt 0.638437 0.024656
vt 0.689086 0.615205
vt 0.689086 0.632253
vt 0.678797 0.632253
vt 0.678797 0.615205
vt 0.638297 0.000044
vt 0.678797 0.633592
vt 0.678797 0.615205
vt 0.668509 0.615205
vt 0.653921 0.020343
vt 0.653921 0.000000
vt 0.653920 0.616229
vt 0.653920 0.633952
vt 0.638297 0.633996
vn 0.0000 1.0000 0.0000
vn 1.0000 0.0000 0.0000
vn 0.0000 -1.0000 0.0000
vn 0.0000 0.0000 -1.0000
vn 0.0000 -0.0000 1.0000
vn -0.8390 0.4225 -0.3429
vn -0.7046 0.7096 -0.0000
vn -0.8238 0.4148 0.3865
vn -0.7292 -0.0000 0.6843
vn -1.0000 -0.0000 -0.0000
vn -0.7742 0.0000 -0.6329
vn -0.8497 -0.3967 -0.3473
vn -0.7309 -0.6825 -0.0000
vn -0.8339 -0.3893 0.3912
usemtl Material
s off
f 14/1/1 16/2/1 7/3/1 6/4/1
f 24/5/2 14/6/2 6/7/2 18/8/2
f 17/9/2 5/10/2 11/11/2 22/12/2
f 5/13/1 8/14/1 12/15/1 11/16/1
f 22/12/2 11/11/2 14/6/2 24/5/2
f 11/16/1 12/15/1 16/2/1 14/1/1
f 9/17/3 13/18/3 15/19/3 10/20/3
f 22/21/3 24/22/3 34/23/3 33/24/3
f 29/25/2 17/9/2 22/12/2 26/26/2
f 28/27/2 24/5/2 18/8/2 30/28/2
f 13/29/2 28/27/2 30/28/2 2/30/2
f 1/31/2 29/25/2 26/26/2 9/32/2
f 9/32/2 26/26/2 28/27/2 13/29/2
f 35/33/2 33/34/2 34/35/2 36/36/2
f 24/37/4 28/38/4 36/39/4 34/40/4
f 28/41/1 26/42/1 35/43/1 36/44/1
f 26/45/5 22/46/5 33/47/5 35/48/5
usemtl Material_NONE
f 13/18/3 2/49/3 3/50/3 15/19/3
f 18/51/5 6/52/5 7/53/5 19/54/5
f 21/55/6 12/56/6 8/57/6 20/58/6
f 29/59/4 1/60/4 4/61/4 32/62/4
f 23/63/7 16/2/7 12/15/7 21/64/7
f 1/65/3 9/17/3 10/20/3 4/66/3
f 19/67/8 7/68/8 16/69/8 23/70/8
f 31/71/9 19/54/9 23/72/9 27/73/9
f 27/74/10 23/75/10 21/55/10 25/76/10
f 5/77/4 17/78/4 20/79/4 8/80/4
f 25/76/11 21/55/11 20/58/11 32/81/11
f 30/82/5 18/51/5 19/54/5 31/71/5
f 2/83/5 30/82/5 31/71/5 3/84/5
f 10/85/12 25/76/12 32/81/12 4/86/12
f 15/87/13 27/74/13 25/76/13 10/85/13
f 3/88/14 31/89/14 27/74/14 15/87/14
f 17/78/4 29/59/4 32/62/4 20/79/4
