# Blender v2.79 (sub 0) OBJ File: 'recyclingbinupdated.blend'
# www.blender.org
mtllib recyclingbinupdated.mtl
o Cube
v 1.834132 -0.117282 -1.531200
v 1.834132 -0.117282 1.531200
v -1.834132 -0.117282 1.531200
v -1.834131 -0.117282 -1.531201
v 2.167375 7.417575 -1.809402
v 2.167372 7.417575 1.809404
v -2.167375 7.417575 1.809402
v -2.167374 7.417575 -1.809402
v 1.822077 -0.094020 -1.521136
v 1.822077 -0.094020 1.521136
v -1.822078 -0.094020 1.521136
v -1.822077 -0.094020 -1.521137
v 2.152139 7.421646 -1.796682
v 2.152137 7.421646 1.796684
v -2.152139 7.421646 1.796682
v -2.152138 7.421646 -1.796683
vt 1.000000 0.615941
vt 0.779578 0.615941
vt 0.779578 0.333621
vt 1.000000 0.333621
vt 0.020024 0.333621
vt 0.000000 0.000000
vt 0.260470 0.000000
vt 0.240446 0.333621
vt 0.280494 0.667242
vt 0.260470 0.333621
vt 0.520940 0.333621
vt 0.500915 0.667242
vt 0.020024 0.667242
vt 0.000000 0.333621
vt 0.260470 0.333621
vt 0.240446 0.667242
vt 0.520940 0.000000
vt 0.500916 0.333621
vt 0.280494 0.333621
vt 0.260470 0.000000
vt 0.998551 0.896405
vt 0.779578 0.896405
vt 0.779578 0.615941
vt 0.998551 0.615941
vt 0.278472 0.667242
vt 0.497444 0.667242
vt 0.517278 1.000000
vt 0.258639 1.000000
vt 0.540772 0.666379
vt 0.759745 0.666379
vt 0.779578 0.999137
vt 0.520940 0.999137
vt 0.019833 0.667242
vt 0.238806 0.667242
vt 0.258639 1.000000
vt 0.000000 1.000000
vt 0.779578 0.666379
vt 0.520940 0.666379
vt 0.540772 0.333621
vt 0.759745 0.333621
vt 0.781409 0.333614
vt 0.520940 0.333614
vt 0.521855 0.332442
vt 0.780494 0.332442
vt 0.520940 0.000000
vt 0.521855 0.001173
vt 0.781409 0.000000
vt 0.780494 0.001173
vn 0.5651 -0.5986 -0.5678
vn 0.5651 -0.5986 0.5678
vn -0.5651 -0.5986 0.5678
vn -0.5651 -0.5986 -0.5678
vn 0.6164 0.4977 -0.6102
vn 0.6164 0.4977 0.6102
vn -0.6164 0.4977 0.6102
vn -0.6164 0.4977 -0.6102
vn -0.5651 0.5984 0.5679
vn 0.5651 0.5984 0.5679
vn 0.5651 0.5984 -0.5679
vn -0.5651 0.5984 -0.5679
vn -0.1997 0.9658 -0.1652
vn -0.1997 0.9658 0.1652
vn 0.1997 0.9658 -0.1652
vn 0.1997 0.9658 0.1652
usemtl recycling_bin
s 1
f 1/1/1 2/2/2 3/3/3 4/4/4
f 1/5/1 5/6/5 6/7/6 2/8/2
f 2/9/2 6/10/6 7/11/7 3/12/3
f 3/13/3 7/14/7 8/15/8 4/16/4
f 5/17/5 1/18/1 4/19/4 8/20/8
f 9/21/9 12/22/10 11/23/11 10/24/12
f 9/25/9 10/26/12 14/27/13 13/28/14
f 10/29/12 11/30/11 15/31/15 14/32/13
f 11/33/11 12/34/10 16/35/16 15/36/15
f 13/37/14 16/38/16 12/39/10 9/40/9
f 6/41/6 5/42/5 13/43/14 14/44/13
f 5/42/5 8/45/8 16/46/16 13/43/14
f 7/47/7 6/41/6 14/44/13 15/48/15
f 8/45/8 7/47/7 15/48/15 16/46/16
