# Blender v2.79 (sub 0) OBJ File: 'desk grey.blend'
# www.blender.org
mtllib deskgreyupdated.mtl
o Cube
v 2.565270 -1.898772 -4.095420
v 2.565270 -1.898772 -3.926691
v -2.565271 -1.898772 -3.926691
v -2.565269 -1.898772 -4.095420
v 2.565272 1.898772 -4.095420
v 2.565269 1.898772 -3.926691
v -2.565271 1.898772 -3.926691
v -2.565270 1.898772 -4.095420
v 2.565270 -1.898772 4.132808
v 2.565270 -1.898772 3.964078
v -2.565271 -1.898772 3.964078
v -2.565269 -1.898772 4.132808
v 2.565272 1.898772 4.132808
v 2.565269 1.898772 3.964078
v -2.565271 1.898772 3.964078
v -2.565270 1.898772 4.132808
v 2.565272 1.898772 4.132808
v 2.565269 1.898772 3.964078
v -2.565270 1.898772 4.132808
v -2.565271 1.898772 3.964078
v 2.949746 1.898772 4.145452
v 2.949743 1.898772 3.951434
v -2.949744 1.898772 4.145452
v -2.949746 1.898772 3.951434
v 2.949746 2.172787 4.145452
v 2.949743 2.172787 3.951434
v -2.949744 2.172787 4.145452
v -2.949746 2.172787 3.951434
v 2.949743 1.898772 -4.313481
v -2.949746 1.898772 -4.313481
v 2.949746 1.898772 4.434412
v -2.949744 1.898772 4.434412
v 2.949746 2.172787 4.434412
v -2.949744 2.172787 4.434412
v 2.795007 1.898772 3.734657
v -2.795011 1.898772 3.734657
v 2.795007 1.898772 -4.096704
v -2.795011 1.898772 -4.096704
v 2.404191 1.898772 3.523669
v -2.332992 1.898772 3.523669
v 2.404191 1.898772 -3.885717
v -2.332992 1.898772 -3.885717
v 2.404191 1.439313 3.523669
v -2.332992 1.439313 3.523669
v 2.404191 1.439313 -3.885717
v -2.332992 1.439313 -3.885717
v -0.147433 -1.898772 4.132808
v -0.147434 -1.898772 3.964078
v -0.147433 1.898772 4.132808
v -0.147435 1.898772 3.964078
v -0.147433 1.898772 4.132808
v -0.147435 1.898772 3.964078
v -0.169530 1.898772 4.145452
v -0.169532 1.898772 3.951434
v -0.169532 1.898772 -4.313481
v -0.169530 1.898772 4.434412
v -0.169530 2.172787 4.434412
v -0.160639 1.898772 3.734657
v -0.160639 1.898772 -4.096704
v -0.100531 1.898772 3.523669
v -0.100531 1.898772 -3.885717
v -0.100531 1.439313 3.523669
v -0.100531 1.439313 -3.885717
v 0.120868 -1.898772 4.132808
v 0.120868 -1.898772 3.964078
v 0.120868 1.898772 4.132808
v 0.120866 1.898772 3.964078
v 0.120868 1.898772 4.132808
v 0.120866 1.898772 3.964078
v 0.138984 1.898772 4.145452
v 0.138982 1.898772 3.951434
v 0.138982 1.898772 -4.313481
v 0.138984 1.898772 4.434412
v 0.138984 2.172787 4.434412
v 0.131691 1.898772 3.734657
v 0.131691 1.898772 -4.096704
v 0.147200 1.898772 3.523669
v 0.147200 1.898772 -3.885717
v 0.147200 1.439313 3.523669
v 0.147200 1.439313 -3.885717
v 0.147200 -0.136831 3.523669
v -0.100531 -0.136831 3.523669
v 0.147200 -0.136831 -3.885717
v -0.100531 -0.136831 -3.885717
v 2.565270 -1.898772 4.095420
v 2.565270 -1.898772 3.926691
v -2.565271 -1.898772 3.926691
v -2.565269 -1.898772 4.095420
v 2.565272 1.898772 4.095420
v 2.565269 1.898772 3.926691
v -2.565271 1.898772 3.926691
v -2.565270 1.898772 4.095420
v 2.565270 -1.898772 -4.132808
v 2.565270 -1.898772 -3.964078
v -2.565271 -1.898772 -3.964078
v -2.565269 -1.898772 -4.132808
v 2.565272 1.898772 -4.132808
v 2.565269 1.898772 -3.964078
v -2.565271 1.898772 -3.964078
v -2.565270 1.898772 -4.132808
v 2.565272 1.898772 -4.132808
v 2.565269 1.898772 -3.964078
v -2.565270 1.898772 -4.132808
v -2.565271 1.898772 -3.964078
v 2.949746 1.898772 -4.145452
v 2.949743 1.898772 -3.951434
v -2.949744 1.898772 -4.145452
v -2.949746 1.898772 -3.951434
v 2.949746 2.172787 -4.145452
v 2.949743 2.172787 -3.951434
v -2.949744 2.172787 -4.145452
v -2.949746 2.172787 -3.951434
v 2.949743 1.898772 4.313481
v -2.949746 1.898772 4.313481
v 2.949743 2.172787 4.313481
v -2.949746 2.172787 4.313481
v 2.949746 1.898772 -4.434412
v -2.949744 1.898772 -4.434412
v 2.949746 2.172787 -4.434412
v -2.949744 2.172787 -4.434412
v 2.795007 1.898772 -3.734657
v -2.795011 1.898772 -3.734657
v 2.795007 1.898772 4.096704
v -2.795011 1.898772 4.096704
v 2.404191 1.898772 -3.523669
v -2.332992 1.898772 -3.523669
v 2.404191 1.898772 3.885717
v -2.332992 1.898772 3.885717
v 2.404191 1.439313 -3.523669
v -2.332992 1.439313 -3.523669
v 2.404191 1.439313 3.885717
v -2.332992 1.439313 3.885717
v -0.147433 -1.898772 -4.132808
v -0.147434 -1.898772 -3.964078
v -0.147433 1.898772 -4.132808
v -0.147435 1.898772 -3.964078
v -0.147433 1.898772 -4.132808
v -0.147435 1.898772 -3.964078
v -0.169530 1.898772 -4.145452
v -0.169532 1.898772 -3.951434
v -0.169532 1.898772 4.313481
v -0.169532 2.172787 4.313481
v -0.169530 1.898772 -4.434412
v -0.169530 2.172787 -4.434412
v -0.160639 1.898772 -3.734657
v -0.160639 1.898772 4.096704
v -0.100531 1.898772 -3.523669
v -0.100531 1.898772 3.885717
v -0.100531 1.439313 -3.523669
v -0.100531 1.439313 3.885717
v 0.120868 -1.898772 -4.132808
v 0.120868 -1.898772 -3.964078
v 0.120868 1.898772 -4.132808
v 0.120866 1.898772 -3.964078
v 0.120868 1.898772 -4.132808
v 0.120866 1.898772 -3.964078
v 0.138984 1.898772 -4.145452
v 0.138982 1.898772 -3.951434
v 0.138982 1.898772 4.313481
v 0.138982 2.172787 4.313481
v 0.138984 1.898772 -4.434412
v 0.138984 2.172787 -4.434412
v 0.131691 1.898772 -3.734657
v 0.131691 1.898772 4.096704
v 0.147200 1.898772 -3.523669
v 0.147200 1.898772 3.885717
v 0.147200 1.439313 -3.523669
v 0.147200 1.439313 3.885717
v 0.147200 -0.136831 -3.523669
v -0.100531 -0.136831 -3.523669
v 0.147200 -0.136831 3.885717
v -0.100531 -0.136831 3.885717
vt 0.865438 0.115728
vt 0.953042 0.115728
vt 0.953042 0.135016
vt 0.865438 0.135016
vt 0.953042 0.212169
vt 0.865438 0.212169
vt 0.865438 0.192881
vt 0.953042 0.192881
vt 0.953042 0.154305
vt 0.865438 0.154305
vt 0.865438 0.135016
vt 0.953042 0.135016
vt 0.777835 0.154305
vt 0.777835 0.135017
vt 0.865438 0.135017
vt 0.865438 0.154305
vt 0.953042 0.154305
vt 0.953042 0.173593
vt 0.865438 0.173593
vt 0.953042 0.000000
vt 0.953042 0.019288
vt 0.865438 0.019288
vt 0.865438 0.000000
vt 0.906722 0.057864
vt 0.865438 0.057864
vt 0.865438 0.038576
vt 0.906722 0.038576
vt 0.000000 0.000000
vt 0.000000 0.000000
vt 0.000000 0.000000
vt 0.000000 0.000000
vt 0.865438 0.000000
vt 0.865438 0.019288
vt 0.777835 0.019288
vt 0.777835 0.000000
vt 0.865438 0.106639
vt 0.865438 0.115728
vt 0.777835 0.115728
vt 0.777835 0.106639
vt 0.777835 0.077152
vt 0.777835 0.057864
vt 0.865438 0.057864
vt 0.865438 0.077152
vt 0.777835 0.183691
vt 0.777835 0.182682
vt 0.777835 0.173593
vt 0.865438 0.173593
vt 0.865438 0.182682
vt 0.865438 0.183691
vt 0.865438 0.192881
vt 0.777835 0.192881
vt 0.052884 0.053765
vt 0.094168 0.053765
vt 0.100733 0.055211
vt 0.053261 0.055211
vt 0.000000 0.000000
vt 0.000000 0.000000
vt 0.000000 0.000000
vt 0.000000 0.000000
vt 0.000000 0.000000
vt 0.000000 0.000000
vt 0.000000 0.000000
vt 0.000000 0.000000
vt 0.098091 0.079991
vt 0.053110 0.079991
vt 0.006565 0.034477
vt 0.006565 0.053765
vt 0.000000 0.055211
vt 0.000000 0.033032
vt 0.094168 0.034477
vt 0.100733 0.033032
vt 0.048303 0.034477
vt 0.047994 0.033032
vt 0.750411 0.966968
vt 0.750411 0.944789
vt 0.756732 0.944789
vt 0.756732 0.966968
vt 0.756732 0.055211
vt 0.756732 0.033032
vt 0.763053 0.033032
vt 0.763053 0.055211
vt 0.750411 0.000000
vt 0.756732 1.000000
vt 0.953042 0.129186
vt 0.953042 0.118619
vt 0.959363 0.118619
vt 0.959363 0.129186
vt 0.756732 1.000000
vt 0.750411 1.000000
vt 0.000000 0.000000
vt 0.047994 0.000000
vt 0.756732 0.000000
vt 0.763053 0.000000
vt 0.002643 0.975219
vt 0.002642 0.079991
vt 0.009315 0.104110
vt 0.009316 0.951101
vt 0.100734 1.000000
vt 0.098092 0.975219
vt 0.047994 1.000000
vt 0.000000 1.000000
vt 0.048118 0.975219
vt 0.733490 0.846991
vt 0.733490 0.000000
vt 0.744089 0.000000
vt 0.744089 0.846991
vt 0.047854 0.951101
vt 0.090203 0.951101
vt 0.090202 0.104110
vt 0.052083 0.104110
vt 0.556249 0.846991
vt 0.518130 0.846991
vt 0.518130 0.000000
vt 0.556250 0.000000
vt 0.953042 0.008393
vt 0.953042 0.000000
vt 0.963641 0.000000
vt 0.963641 0.008393
vt 0.701691 0.846991
vt 0.701690 0.000000
vt 0.712289 0.000000
vt 0.712290 0.846991
vt 0.953042 0.061913
vt 0.953042 0.053428
vt 0.963641 0.053428
vt 0.963641 0.061913
vt 0.953042 0.071237
vt 0.953042 0.062844
vt 0.963641 0.062844
vt 0.963641 0.071237
vt 0.953042 0.009324
vt 0.963641 0.009324
vt 1.000000 0.061913
vt 1.000000 0.062844
vt 0.048118 0.079991
vt 0.047853 0.104110
vt 0.053110 0.975219
vt 0.052084 0.951101
vt 0.053262 1.000000
vt 0.053261 0.033032
vt 0.053261 0.000000
vt 0.100733 0.000000
vt 0.953042 0.140798
vt 0.953042 0.130346
vt 0.959363 0.130346
vt 0.959363 0.140798
vt 0.052884 0.034477
vt 0.047994 0.055211
vt 0.000000 0.000000
vt 0.000000 0.000000
vt 0.000000 0.000000
vt 0.000000 0.000000
vt 0.048303 0.053765
vt 0.865438 0.105630
vt 0.777835 0.105630
vt 0.911304 0.057864
vt 0.911304 0.038576
vt 0.953042 0.057864
vt 0.953042 0.038576
vt 0.865438 0.096440
vt 0.777835 0.096440
vt 0.254207 0.000000
vt 0.302201 0.000000
vt 0.302201 0.033032
vt 0.302201 0.055211
vt 0.302201 1.000000
vt 0.254207 1.000000
vt 0.248939 1.000000
vt 0.201467 1.000000
vt 0.201468 0.055211
vt 0.201468 0.033032
vt 0.201468 0.000000
vt 0.248940 0.000000
vt 0.480011 0.846991
vt 0.441473 0.846991
vt 0.441473 0.000000
vt 0.480011 0.000000
vt 0.953042 0.017809
vt 0.963641 0.017809
vt 0.777834 0.846991
vt 0.773604 0.846991
vt 0.773605 0.000000
vt 0.777835 0.000000
vt 0.592611 0.846991
vt 0.592610 0.000000
vt 0.628969 0.000000
vt 0.628970 0.846991
vt 0.665331 0.846991
vt 0.665330 0.000000
vt 0.701689 0.000000
vt 0.701690 0.846991
vt 1.000000 0.008393
vt 1.000000 0.009324
vt 0.953042 0.096440
vt 0.865438 0.096440
vt 0.865438 0.077152
vt 0.953042 0.077152
vt 0.953042 0.173593
vt 0.953042 0.192881
vt 0.865438 0.192881
vt 0.865438 0.173593
vt 0.953042 0.115728
vt 0.865438 0.115728
vt 0.865438 0.096440
vt 0.865438 0.115728
vt 0.865438 0.135017
vt 0.777835 0.135017
vt 0.777835 0.115728
vt 0.777835 0.212169
vt 0.777835 0.192881
vt 0.865438 0.192881
vt 0.865438 0.212169
vt 0.865438 0.038576
vt 0.865438 0.019288
vt 0.953042 0.019288
vt 0.953042 0.038576
vt 0.906722 0.057864
vt 0.906722 0.077152
vt 0.865438 0.077152
vt 0.865438 0.057864
vt 0.000000 0.000000
vt 0.000000 0.000000
vt 0.000000 0.000000
vt 0.000000 0.000000
vt 0.865438 0.038576
vt 0.777835 0.038576
vt 0.777835 0.019288
vt 0.865438 0.019288
vt 0.824154 0.173593
vt 0.824154 0.154305
vt 0.865438 0.154305
vt 0.865438 0.173593
vt 0.777835 0.038576
vt 0.865438 0.038576
vt 0.865438 0.057864
vt 0.777835 0.057864
vt 0.823700 0.096440
vt 0.819119 0.096440
vt 0.777835 0.096440
vt 0.777835 0.077152
vt 0.819119 0.077152
vt 0.823700 0.077152
vt 0.865438 0.077152
vt 0.865438 0.096440
vt 0.350050 0.053765
vt 0.349673 0.055211
vt 0.302201 0.055211
vt 0.308766 0.053765
vt 0.000000 0.000000
vt 0.000000 0.000000
vt 0.000000 0.000000
vt 0.000000 0.000000
vt 0.000000 0.000000
vt 0.000000 0.000000
vt 0.000000 0.000000
vt 0.000000 0.000000
vt 0.349825 0.079991
vt 0.304843 0.079991
vt 0.396370 0.034477
vt 0.402935 0.033032
vt 0.402934 0.055211
vt 0.396370 0.053765
vt 0.302201 0.033032
vt 0.308766 0.034477
vt 0.354632 0.034477
vt 0.354941 0.033032
vt 0.744090 0.033032
vt 0.750411 0.033032
vt 0.750411 0.055211
vt 0.744090 0.055211
vt 0.763053 0.944789
vt 0.769374 0.944789
vt 0.769374 0.966968
vt 0.763053 0.966968
vt 0.953042 0.082964
vt 0.959363 0.082964
vt 0.959363 0.093416
vt 0.953042 0.093416
vt 0.750410 1.000000
vt 0.744089 1.000000
vt 0.763053 0.000000
vt 0.769374 0.000000
vt 0.953042 0.108052
vt 0.959363 0.108052
vt 0.959363 0.118619
vt 0.953042 0.118619
vt 0.744090 0.000000
vt 0.750411 0.000000
vt 0.354941 0.000000
vt 0.402935 0.000000
vt 0.769374 1.000000
vt 0.763053 1.000000
vt 0.400292 0.975219
vt 0.393619 0.951101
vt 0.393619 0.104110
vt 0.400292 0.079991
vt 0.304843 0.975219
vt 0.302201 1.000000
vt 0.354941 1.000000
vt 0.354816 0.975219
vt 0.402934 1.000000
vt 0.722890 0.000000
vt 0.733489 0.000000
vt 0.733490 0.846991
vt 0.722891 0.846991
vt 0.355081 0.951101
vt 0.312732 0.104110
vt 0.312732 0.951101
vt 0.350851 0.104110
vt 0.518130 0.000000
vt 0.518130 0.846991
vt 0.480011 0.846991
vt 0.480011 0.000000
vt 0.953042 0.027226
vt 0.963641 0.027226
vt 0.963641 0.035618
vt 0.953042 0.035618
vt 0.712290 0.000000
vt 0.722889 0.000000
vt 0.722890 0.846991
vt 0.712291 0.846991
vt 0.953042 0.044943
vt 0.963641 0.044943
vt 0.963641 0.053428
vt 0.953042 0.053428
vt 0.953042 0.035618
vt 0.963641 0.035618
vt 0.963641 0.044011
vt 0.953042 0.044011
vt 0.953042 0.026294
vt 0.963641 0.026294
vt 1.000000 0.044011
vt 1.000000 0.044943
vt 0.354816 0.079991
vt 0.355081 0.104110
vt 0.350851 0.951101
vt 0.349825 0.975219
vt 0.349673 1.000000
vt 0.302201 0.000000
vt 0.349673 0.000000
vt 0.349673 0.033032
vt 0.953042 0.096440
vt 0.959363 0.096440
vt 0.959363 0.106893
vt 0.953042 0.106893
vt 0.953042 0.081804
vt 0.959363 0.081804
vt 0.350050 0.034477
vt 0.354941 0.055211
vt 0.000000 0.000000
vt 0.000000 0.000000
vt 0.000000 0.000000
vt 0.000000 0.000000
vt 0.354632 0.053765
vt 0.819572 0.173593
vt 0.819572 0.154305
vt 0.911304 0.057864
vt 0.911304 0.077152
vt 0.953042 0.057864
vt 0.953042 0.077152
vt 0.777835 0.173593
vt 0.777835 0.154305
vt 0.100734 0.033032
vt 0.100734 0.000000
vt 0.148727 0.000000
vt 0.153995 0.000000
vt 0.201467 0.000000
vt 0.201467 0.033032
vt 0.201467 0.055211
vt 0.201467 0.999999
vt 0.153995 0.999999
vt 0.148728 0.999999
vt 0.100734 0.999999
vt 0.100734 0.055211
vt 0.953042 0.071237
vt 0.959363 0.071237
vt 0.402935 0.846991
vt 0.402935 0.000000
vt 0.441472 0.000000
vt 0.441473 0.846991
vt 0.953042 0.017809
vt 0.963641 0.017809
vt 0.773604 0.000000
vt 0.773604 0.846991
vt 0.769374 0.846991
vt 0.769374 0.000000
vt 0.556250 0.000000
vt 0.592609 0.000000
vt 0.592610 0.846991
vt 0.556251 0.846991
vt 0.628970 0.000000
vt 0.665330 0.000000
vt 0.665330 0.846991
vt 0.628971 0.846991
vt 1.000000 0.026294
vt 1.000000 0.027226
vn 0.0000 -1.0000 0.0000
vn 0.0000 1.0000 0.0000
vn 1.0000 0.0000 0.0000
vn 0.0000 0.0000 1.0000
vn -1.0000 -0.0000 -0.0000
vn 0.0000 0.0000 -1.0000
vn 0.0000 0.9995 -0.0313
usemtl Material
s off
f 1/1/1 2/2/1 3/3/1 4/4/1
f 5/5/2 8/6/2 7/7/2 6/8/2
f 1/9/3 5/10/3 6/11/3 2/12/3
f 2/13/4 6/14/4 7/15/4 3/16/4
f 3/16/5 7/17/5 8/18/5 4/19/5
f 5/20/6 1/21/6 4/22/6 8/23/6
f 47/24/1 12/25/1 11/26/1 48/27/1
f 15/28/4 16/29/4 19/30/4 20/31/4
f 9/32/3 10/33/3 14/34/3 13/35/3
f 48/36/6 11/37/6 15/38/6 50/39/6
f 11/40/5 12/41/5 16/42/5 15/43/5
f 66/44/4 49/45/4 16/46/4 12/47/4 47/48/4 64/49/4 9/50/4 13/51/4
f 52/52/1 20/53/1 24/54/1 54/55/1
f 66/56/4 13/57/4 17/58/4 68/59/4
f 50/60/4 15/28/4 20/31/4 52/61/4
f 13/57/4 14/62/4 18/63/4 17/58/4
f 54/55/1 24/54/1 36/64/1 58/65/1
f 17/66/1 18/67/1 22/68/1 21/69/1
f 20/53/1 19/70/1 23/71/1 24/54/1
f 68/72/1 17/66/1 21/69/1 70/73/1
f 21/74/3 22/75/3 26/76/3 25/77/3
f 24/78/5 23/79/5 27/80/5 28/81/5
f 26/76/3 22/75/3 29/82/3
f 24/78/5 28/81/5 30/83/5
f 73/84/4 31/85/4 33/86/4 74/87/4
f 21/74/3 25/77/3 33/88/3 31/89/3
f 70/73/1 21/69/1 31/90/1 73/91/1
f 27/80/5 23/79/5 32/92/5 34/93/5
f 37/94/1 35/95/1 39/96/1 41/97/1
f 24/54/1 30/98/1 38/99/1 36/64/1
f 72/100/1 29/101/1 37/94/1 76/102/1
f 29/101/1 22/68/1 35/95/1 37/94/1
f 40/103/5 42/104/5 46/105/5 44/106/5
f 76/102/1 37/94/1 41/97/1 78/107/1
f 36/64/1 38/99/1 42/108/1 40/109/1
f 58/65/1 36/64/1 40/109/1 60/110/1
f 62/111/1 44/112/1 46/113/1 63/114/1
f 60/115/4 40/116/4 44/117/4 62/118/4
f 41/119/3 39/120/3 43/121/3 45/122/3
f 78/123/6 41/124/6 45/125/6 80/126/6
f 42/127/6 61/128/6 63/129/6 46/130/6
f 77/131/4 60/115/4 62/118/4 79/132/4
f 63/129/6 80/126/6 83/133/6 84/134/6
f 75/135/1 58/65/1 60/110/1 77/136/1
f 38/99/1 59/137/1 61/138/1 42/108/1
f 30/98/1 55/139/1 59/137/1 38/99/1
f 23/71/1 53/140/1 56/141/1 32/142/1
f 32/143/4 56/144/4 57/145/4 34/146/4
f 19/70/1 51/147/1 53/140/1 23/71/1
f 71/148/1 54/55/1 58/65/1 75/135/1
f 67/149/4 50/60/4 52/61/4 69/150/4
f 16/29/4 49/151/4 51/152/4 19/30/4
f 69/153/1 52/52/1 54/55/1 71/148/1
f 65/154/6 48/36/6 50/39/6 67/155/6
f 64/156/1 47/24/1 48/27/1 65/157/1
f 9/158/1 64/156/1 65/157/1 10/159/1
f 10/160/6 65/154/6 67/155/6 14/161/6
f 18/67/1 69/153/1 71/148/1 22/68/1
f 14/62/4 67/149/4 69/150/4 18/63/4
f 22/68/1 71/148/1 75/135/1 35/95/1
f 74/162/7 33/163/7 25/164/7 26/165/7 29/166/7 72/167/7 55/168/7 30/169/7 28/170/7 27/171/7 34/172/7 57/173/7
f 35/95/1 75/135/1 77/136/1 39/96/1
f 43/174/1 79/175/1 80/176/1 45/177/1
f 39/178/4 77/131/4 79/132/4 43/179/4
f 61/128/6 78/123/6 80/126/6 63/129/6
f 59/137/1 76/102/1 78/107/1 61/138/1
f 55/139/1 72/100/1 76/102/1 59/137/1
f 53/140/1 70/73/1 73/91/1 56/141/1
f 56/144/4 73/84/4 74/87/4 57/145/4
f 51/147/1 68/72/1 70/73/1 53/140/1
f 49/151/4 66/56/4 68/59/4 51/152/4
f 81/180/1 82/181/1 84/182/1 83/183/1
f 80/184/3 79/185/3 81/186/3 83/187/3
f 62/188/5 63/189/5 84/190/5 82/191/5
f 79/132/4 62/118/4 82/192/4 81/193/4
f 85/194/1 88/195/1 87/196/1 86/197/1
f 89/198/2 90/199/2 91/200/2 92/201/2
f 85/194/3 86/202/3 90/203/3 89/204/3
f 86/205/6 87/206/6 91/207/6 90/208/6
f 87/209/5 88/210/5 92/211/5 91/212/5
f 89/213/4 92/214/4 88/215/4 85/216/4
f 133/217/1 134/218/1 95/219/1 96/220/1
f 99/221/4 104/222/4 103/223/4 100/224/4
f 93/225/3 97/226/3 98/227/3 94/228/3
f 134/229/4 136/230/4 99/231/4 95/232/4
f 95/233/5 99/234/5 100/235/5 96/236/5
f 151/237/6 133/238/6 96/239/6 100/240/6 135/241/6 153/242/6 97/243/6 93/244/6
f 138/245/1 140/246/1 108/247/1 104/248/1
f 153/249/4 155/250/4 101/251/4 97/252/4
f 136/253/4 138/254/4 104/222/4 99/221/4
f 97/252/4 101/251/4 102/255/4 98/256/4
f 140/246/1 145/257/1 122/258/1 108/247/1
f 101/259/1 105/260/1 106/261/1 102/262/1
f 104/248/1 108/247/1 107/263/1 103/264/1
f 155/265/1 157/266/1 105/260/1 101/259/1
f 105/267/3 109/268/3 110/269/3 106/270/3
f 108/271/5 112/272/5 111/273/5 107/274/5
f 141/275/4 142/276/4 116/277/4 114/278/4
f 110/269/3 115/279/3 113/280/3 106/270/3
f 108/271/5 114/281/5 116/282/5 112/272/5
f 161/283/6 162/284/6 119/285/6 117/286/6
f 105/267/3 117/287/3 119/288/3 109/268/3
f 157/266/1 161/289/1 117/290/1 105/260/1
f 111/273/5 120/291/5 118/292/5 107/274/5
f 123/293/1 127/294/1 125/295/1 121/296/1
f 108/247/1 122/258/1 124/297/1 114/298/1
f 159/299/1 164/300/1 123/293/1 113/301/1
f 113/301/1 123/293/1 121/296/1 106/261/1
f 126/302/5 130/303/5 132/304/5 128/305/5
f 164/300/1 166/306/1 127/294/1 123/293/1
f 122/258/1 126/307/1 128/308/1 124/297/1
f 145/257/1 147/309/1 126/307/1 122/258/1
f 149/310/1 150/311/1 132/312/1 130/313/1
f 147/314/6 149/315/6 130/316/6 126/317/6
f 127/318/3 131/319/3 129/320/3 125/321/3
f 166/322/4 168/323/4 131/324/4 127/325/4
f 128/326/4 132/327/4 150/328/4 148/329/4
f 165/330/6 167/331/6 149/315/6 147/314/6
f 150/328/4 172/332/4 171/333/4 168/323/4
f 163/334/1 165/335/1 147/309/1 145/257/1
f 124/297/1 128/308/1 148/336/1 146/337/1
f 114/298/1 124/297/1 146/337/1 141/338/1
f 107/263/1 118/339/1 143/340/1 139/341/1
f 118/342/6 120/343/6 144/344/6 143/345/6
f 159/346/4 160/347/4 142/276/4 141/275/4
f 103/264/1 107/263/1 139/341/1 137/348/1
f 158/349/1 163/334/1 145/257/1 140/246/1
f 154/350/4 156/351/4 138/254/4 136/253/4
f 100/224/4 103/223/4 137/352/4 135/353/4
f 156/354/1 158/349/1 140/246/1 138/245/1
f 152/355/4 154/356/4 136/230/4 134/229/4
f 151/357/1 152/358/1 134/218/1 133/217/1
f 93/359/1 94/360/1 152/358/1 151/357/1
f 94/361/4 98/362/4 154/356/4 152/355/4
f 102/262/1 106/261/1 158/349/1 156/354/1
f 98/256/4 102/255/4 156/351/4 154/350/4
f 106/261/1 121/296/1 163/334/1 158/349/1
f 109/363/2 119/364/2 162/365/2 144/366/2 120/367/2 111/368/2 112/369/2 116/370/2 142/371/2 160/372/2 115/373/2 110/374/2
f 113/375/4 115/376/4 160/347/4 159/346/4
f 121/296/1 125/295/1 165/335/1 163/334/1
f 129/377/1 131/378/1 168/379/1 167/380/1
f 125/381/6 129/382/6 167/331/6 165/330/6
f 148/329/4 150/328/4 168/323/4 166/322/4
f 146/337/1 148/336/1 166/306/1 164/300/1
f 141/338/1 146/337/1 164/300/1 159/299/1
f 139/341/1 143/340/1 161/289/1 157/266/1
f 143/345/6 144/344/6 162/284/6 161/283/6
f 137/348/1 139/341/1 157/266/1 155/265/1
f 135/353/4 137/352/4 155/250/4 153/249/4
f 169/383/1 171/384/1 172/385/1 170/386/1
f 168/387/3 171/388/3 169/389/3 167/390/3
f 149/391/5 170/392/5 172/393/5 150/394/5
f 167/331/6 169/395/6 170/396/6 149/315/6
