# Blender v2.79 (sub 0) OBJ File: 'wooden bookshelf.blend'
# www.blender.org
mtllib wooden bookshelf.mtl
o Cube.001
v 1.004774 0.241756 -3.523565
v 1.004774 0.241756 -3.607471
v -1.004774 0.241756 -3.607471
v -1.004773 0.241756 -3.523565
v 1.004774 2.241756 -3.523565
v 1.004773 2.241756 -3.607471
v -1.004774 2.241756 -3.607471
v -1.004774 2.241756 -3.523565
v -1.001046 2.284978 3.430057
v -1.001204 2.201068 3.429831
v -0.998950 2.219974 -3.604017
v -0.998792 2.303885 -3.603790
v 0.998950 2.281198 3.430689
v 0.998792 2.197288 3.430460
v 1.001046 2.216194 -3.603387
v 1.001204 2.300104 -3.603160
v -1.001046 0.259014 3.430057
v -1.001204 0.175104 3.429831
v -0.998950 0.194010 -3.604017
v -0.998792 0.277920 -3.603790
v 0.998950 0.255233 3.430689
v 0.998792 0.171323 3.430460
v 1.001046 0.190230 -3.603387
v 1.001204 0.274140 -3.603160
v -1.014300 0.915533 3.425709
v -1.014556 0.831625 3.426328
v -0.985674 0.779668 -3.607295
v -0.985418 0.863576 -3.607913
v 0.985674 0.909482 3.433968
v 0.985418 0.825574 3.434582
v 1.014300 0.773616 -3.599039
v 1.014556 0.857524 -3.599656
v -1.011827 1.720621 3.426906
v -1.011846 1.636711 3.426863
v -0.988162 1.640292 -3.606970
v -0.988142 1.724203 -3.606925
v 0.988162 1.720152 3.433643
v 0.988142 1.636241 3.433595
v 1.011827 1.639823 -3.600237
v 1.011846 1.723734 -3.600192
v 1.002441 0.241756 3.434424
v 1.002441 0.241756 3.350518
v -1.002441 0.241756 3.350518
v -1.002440 0.241756 3.434424
v 1.002441 2.241756 3.434424
v 1.002440 2.241756 3.350518
v -1.002441 2.241756 3.350518
v -1.002441 2.241756 3.434424
vt 0.806187 0.071492
vt 0.903344 0.071492
vt 0.903344 0.059576
vt 0.806187 0.059576
vt 0.806187 0.011915
vt 0.903344 0.011915
vt 0.903344 0.000000
vt 0.806187 0.000000
vt 0.903344 0.023831
vt 0.806187 0.023831
vt 0.806187 0.035746
vt 0.903344 0.035746
vt 0.903293 0.071494
vt 0.806187 0.071492
vt 0.806187 0.083407
vt 0.903293 0.083409
vt 0.903344 0.023831
vt 0.903344 0.011915
vt 0.806187 0.011915
vt 0.806187 0.023831
vt 0.806187 0.095326
vt 0.903293 0.095324
vt 0.903293 0.083409
vt 0.806187 0.083411
vt 0.802110 0.998894
vt 0.802110 0.000032
vt 0.798033 0.000000
vt 0.798034 0.998862
vt 0.781726 0.000000
vt 0.777649 0.000032
vt 0.777649 0.998894
vt 0.781725 0.998862
vt 0.903344 0.071432
vt 0.907418 0.071433
vt 0.907418 0.059577
vt 0.903344 0.059576
vt 0.386788 0.000089
vt 0.386788 0.998951
vt 0.483484 0.998861
vt 0.483483 0.000000
vt 0.907418 0.035746
vt 0.903344 0.035747
vt 0.903344 0.047602
vt 0.907418 0.047601
vt 0.676875 0.998951
vt 0.676875 0.000089
vt 0.580180 0.000000
vt 0.580180 0.998861
vt 0.773571 0.000000
vt 0.773572 0.998861
vt 0.777649 0.998894
vt 0.777647 0.000032
vt 0.785803 0.000000
vt 0.781726 0.000032
vt 0.781726 0.998894
vt 0.785802 0.998862
vt 0.903344 0.035622
vt 0.907419 0.035623
vt 0.907419 0.023768
vt 0.903344 0.023767
vt 0.483484 0.000089
vt 0.483484 0.998951
vt 0.580180 0.998861
vt 0.580179 0.000000
vt 0.903344 0.059518
vt 0.907418 0.059516
vt 0.907418 0.047661
vt 0.903344 0.047662
vt 0.676875 0.000000
vt 0.676875 0.998862
vt 0.773571 0.998951
vt 0.773571 0.000090
vt 0.789880 0.998829
vt 0.789879 0.000000
vt 0.785803 0.000088
vt 0.785803 0.998917
vt 0.793957 0.998830
vt 0.798033 0.998917
vt 0.798033 0.000088
vt 0.793957 0.000000
vt 0.903293 0.095278
vt 0.907373 0.095275
vt 0.907373 0.083385
vt 0.903293 0.083388
vt 0.193395 0.998830
vt 0.193394 0.000000
vt 0.096698 0.001170
vt 0.096699 1.000000
vt 0.907373 0.071495
vt 0.903293 0.071492
vt 0.903293 0.083382
vt 0.907373 0.083385
vt 0.096696 1.000000
vt 0.096698 0.001170
vt 0.000002 0.000000
vt 0.000000 0.998829
vt 0.789880 0.000000
vt 0.789880 0.998859
vt 0.793956 0.998866
vt 0.793957 0.000006
vt 0.806187 0.000000
vt 0.802110 0.000007
vt 0.802110 0.998866
vt 0.806186 0.998860
vt 0.903344 0.023766
vt 0.907419 0.023767
vt 0.907419 0.011883
vt 0.903344 0.011883
vt 0.193395 0.000954
vt 0.193395 0.999814
vt 0.290091 0.998859
vt 0.290090 0.000000
vt 0.903344 0.011883
vt 0.907420 0.011883
vt 0.907420 0.000000
vt 0.903344 0.000000
vt 0.386788 0.999814
vt 0.386787 0.000955
vt 0.290091 0.000000
vt 0.290091 0.998859
vt 0.806187 0.107241
vt 0.903118 0.107241
vt 0.903119 0.095326
vt 0.806187 0.095326
vt 0.903118 0.119156
vt 0.903118 0.107241
vt 0.806187 0.107241
vt 0.806187 0.119156
vt 0.903344 0.047661
vt 0.903344 0.035746
vt 0.806187 0.035746
vt 0.806187 0.047661
vt 0.903119 0.107241
vt 1.000000 0.107243
vt 1.000000 0.095328
vt 0.903119 0.095326
vt 0.903344 0.059576
vt 0.903344 0.047661
vt 0.806187 0.047661
vt 0.806187 0.059576
vt 1.000000 0.119158
vt 1.000000 0.107243
vt 0.903119 0.107245
vn 0.0000 -1.0000 0.0000
vn 0.0000 1.0000 0.0000
vn 1.0000 0.0000 -0.0000
vn 0.0000 0.0000 -1.0000
vn -1.0000 -0.0000 0.0000
vn 0.0000 0.0000 1.0000
vn -1.0000 0.0019 -0.0003
vn 1.0000 -0.0019 0.0003
vn -0.0003 -0.0027 1.0000
vn -0.0019 -1.0000 -0.0027
vn 0.0003 0.0027 -1.0000
vn 0.0019 1.0000 0.0027
vn -1.0000 0.0030 -0.0041
vn 1.0000 -0.0030 0.0041
vn -0.0041 0.0074 1.0000
vn -0.0031 -1.0000 0.0074
vn 0.0041 -0.0074 -1.0000
vn 0.0031 1.0000 -0.0074
vn -1.0000 0.0002 -0.0034
vn 1.0000 -0.0002 0.0034
vn -0.0034 -0.0005 1.0000
vn -0.0002 -1.0000 -0.0005
vn 0.0034 0.0005 -1.0000
vn 0.0002 1.0000 0.0005
usemtl Material
s off
f 1/1/1 4/2/1 3/3/1 2/4/1
f 5/5/2 6/6/2 7/7/2 8/8/2
f 1/9/3 2/10/3 6/11/3 5/12/3
f 2/13/4 3/14/4 7/15/4 6/16/4
f 3/17/5 4/18/5 8/19/5 7/20/5
f 5/21/6 8/22/6 4/23/6 1/24/6
f 9/25/7 12/26/7 11/27/7 10/28/7
f 13/29/8 14/30/8 15/31/8 16/32/8
f 9/33/9 10/34/9 14/35/9 13/36/9
f 10/37/10 11/38/10 15/39/10 14/40/10
f 11/41/11 12/42/11 16/43/11 15/44/11
f 13/45/12 16/46/12 12/47/12 9/48/12
f 17/49/7 20/50/7 19/51/7 18/52/7
f 21/53/8 22/54/8 23/55/8 24/56/8
f 17/57/9 18/58/9 22/59/9 21/60/9
f 18/61/10 19/62/10 23/63/10 22/64/10
f 19/65/11 20/66/11 24/67/11 23/68/11
f 21/69/12 24/70/12 20/71/12 17/72/12
f 25/73/13 28/74/13 27/75/13 26/76/13
f 29/77/14 30/78/14 31/79/14 32/80/14
f 25/81/15 26/82/15 30/83/15 29/84/15
f 26/85/16 27/86/16 31/87/16 30/88/16
f 27/89/17 28/90/17 32/91/17 31/92/17
f 29/93/18 32/94/18 28/95/18 25/96/18
f 33/97/19 36/98/19 35/99/19 34/100/19
f 37/101/20 38/102/20 39/103/20 40/104/20
f 33/105/21 34/106/21 38/107/21 37/108/21
f 34/109/22 35/110/22 39/111/22 38/112/22
f 35/113/23 36/114/23 40/115/23 39/116/23
f 37/117/24 40/118/24 36/119/24 33/120/24
f 41/121/1 44/122/1 43/123/1 42/124/1
f 45/125/2 46/126/2 47/127/2 48/128/2
f 41/129/3 42/130/3 46/131/3 45/132/3
f 42/133/4 43/134/4 47/135/4 46/136/4
f 43/137/5 44/138/5 48/139/5 47/140/5
f 45/125/6 48/141/6 44/142/6 41/143/6
