# Blender v2.79 (sub 0) OBJ File: 'trash bin.blend'
# www.blender.org
mtllib trash bin.mtl
o Cube
v 1.834132 -0.117282 -1.531200
v 1.834132 -0.117282 1.531200
v -1.834132 -0.117282 1.531200
v -1.834131 -0.117282 -1.531201
v 2.167375 7.417575 -1.809402
v 2.167372 7.417575 1.809404
v -2.167375 7.417575 1.809402
v -2.167374 7.417575 -1.809402
vt 0.544234 0.529524
vt 0.458486 0.553591
vt 0.426225 0.470476
vt 0.511973 0.446409
vt 0.970360 0.999902
vt 0.000102 0.982599
vt 0.000098 0.000098
vt 0.970357 0.017402
vn 0.5651 -0.5986 -0.5678
vn 0.5651 -0.5986 0.5678
vn -0.5651 -0.5986 0.5678
vn -0.5651 -0.5986 -0.5678
vn 0.7075 -0.0573 -0.7043
vn 0.7075 -0.0573 0.7043
vn -0.7075 -0.0573 0.7043
vn -0.7075 -0.0573 -0.7043
usemtl recycling_bin
s 1
f 1/1/1 2/2/2 3/3/3 4/4/4
f 1/1/1 5/5/5 6/6/6 2/2/2
f 2/2/2 6/6/6 7/7/7 3/3/3
f 3/3/3 7/7/7 8/8/8 4/4/4
f 5/5/5 1/1/1 4/4/4 8/8/8
